<svg version="1.1" id="Layer_1" xmlns="http://www.w3.org/2000/svg" xmlns:xlink="http://www.w3.org/1999/xlink" x="0px" y="0px"
	 width="100%" viewBox="0 0 336 416" enable-background="new 0 0 336 416" xml:space="preserve">
<path fill="#000000" opacity="1.000000" stroke="none" 
	d="
M143.449005,155.446472 
	C151.225922,144.472305 156.153748,132.873566 155.702423,119.460419 
	C155.380173,109.883614 150.769501,107.995338 143.000198,106.194786 
	C141.438187,105.832794 140.628098,106.688583 139.582230,107.619186 
	C136.424484,110.428871 133.844070,109.327911 131.755981,106.115875 
	C128.891312,101.709244 129.151505,97.310905 131.862808,92.961617 
	C134.370483,88.938950 138.393219,88.764053 140.334915,93.051476 
	C141.896637,96.499886 144.214035,98.013412 147.542664,99.080650 
	C160.419342,103.209282 164.326691,109.202988 163.665497,122.905281 
	C163.124329,134.120148 159.888824,144.538696 154.194427,154.097107 
	C150.997620,159.463181 149.215561,165.696365 144.081390,169.955704 
	C140.049911,173.300247 135.827606,176.135895 130.938889,177.962463 
	C129.004807,178.685089 127.023659,179.372620 127.104790,181.907227 
	C127.397118,191.039993 126.111488,200.268204 128.268219,209.287888 
	C131.431366,222.516647 144.545746,231.829178 157.728119,230.453262 
	C171.729340,228.991898 183.071548,217.438736 183.653290,203.802963 
	C183.908783,197.814560 183.740036,191.808395 183.783325,185.810410 
	C183.798508,183.707458 183.374634,182.102951 181.219147,180.904785 
	C167.646179,173.359894 164.855453,165.654617 170.112640,150.899216 
	C165.846878,147.211288 167.815338,133.949478 173.755081,126.359596 
	C180.217728,118.101540 190.757370,114.115425 199.325546,116.803917 
	C208.735748,119.756622 215.186035,126.729485 220.685242,133.159378 
	C224.679138,129.720840 228.377243,126.668457 231.927872,123.453186 
	C239.727325,116.390366 248.502014,112.547447 258.900665,116.525566 
	C269.954468,120.754326 276.500397,128.631592 278.513733,140.799454 
	C281.026337,155.985001 274.908905,167.747452 265.532898,178.470886 
	C254.377563,191.229401 241.042221,201.444504 226.872955,210.639740 
	C224.390915,212.250488 222.577164,211.990631 220.101044,210.476608 
	C210.707123,204.732712 202.370605,197.530884 192.660034,190.732498 
	C192.215942,196.156204 191.900726,200.993225 191.410095,205.812393 
	C189.956543,220.089478 179.938126,232.752426 167.196564,236.527695 
	C151.723602,241.112244 136.408707,236.918106 126.969810,225.036926 
	C121.903740,218.660004 118.940788,211.225266 118.762756,202.939392 
	C118.623177,196.443161 118.684853,189.942200 118.695885,183.443405 
	C118.699753,181.162643 118.470032,179.205322 115.840561,178.267685 
	C106.277580,174.857697 99.391991,169.068817 94.319931,159.659897 
	C88.871300,149.552383 84.384636,139.454773 82.250916,128.217285 
	C80.995483,121.605362 81.857262,115.275894 84.136765,109.094055 
	C86.276672,103.290825 91.393166,101.148682 96.750954,99.491684 
	C100.226372,98.416832 103.305260,97.578781 104.807388,93.277016 
	C106.344658,88.874611 110.533577,88.918930 113.280304,92.733116 
	C115.910889,96.386032 116.084282,102.729095 113.572395,106.455078 
	C111.882523,108.961723 109.696487,110.132599 106.776268,108.403229 
	C100.075409,104.434952 91.262367,108.277466 90.361504,115.802856 
	C88.649590,130.103348 92.908630,143.150589 101.314552,154.263153 
	C104.878754,158.974991 110.079903,163.288071 115.874260,166.106400 
	C122.821968,169.485718 128.779343,167.469376 134.343613,162.946747 
	C137.302307,160.541931 139.598663,157.332108 143.449005,155.446472 
M206.693024,153.301178 
	C209.052414,157.596603 207.971756,162.447693 208.589981,168.117966 
	C211.017960,159.204117 209.010468,151.763199 203.543121,148.147675 
	C204.615479,149.844635 205.492218,151.232010 206.693024,153.301178 
z"/>
<path fill="#000000" opacity="1.000000" stroke="none" 
	d="
M97.800407,267.130310 
	C101.764305,275.704437 104.385765,284.475006 109.330811,292.719482 
	C112.907303,289.142792 113.817787,284.987396 115.555954,281.314636 
	C117.545982,277.109741 119.223808,272.757782 121.181190,268.536438 
	C123.690895,263.123993 130.666306,261.698547 136.453445,265.872101 
	C130.024170,268.250183 131.298157,273.588318 131.258835,278.435181 
	C131.222351,282.929901 131.302475,287.425598 131.267838,291.920380 
	C131.214645,298.826477 131.191620,298.826294 137.419449,306.091522 
	C130.692307,306.494873 124.678070,306.571045 117.511208,305.877350 
	C129.046204,297.840942 121.729218,287.385559 124.421806,277.887482 
	C121.225288,278.837891 120.944214,280.754791 120.260841,282.296967 
	C117.094757,289.441742 113.973648,296.606537 110.789940,303.743378 
	C110.205582,305.053345 109.938881,306.906006 108.068542,306.937531 
	C105.890556,306.974213 105.712975,304.868927 105.066437,303.438599 
	C101.983559,296.618500 98.979485,289.762817 95.932632,282.926392 
	C95.346771,281.611847 95.157982,279.990692 92.606972,279.152985 
	C92.606972,286.314209 92.445801,293.186920 92.682892,300.045837 
	C92.783798,302.965118 96.890488,302.416016 97.927452,304.835968 
	C94.659447,306.787506 86.995789,306.962463 81.695854,304.913635 
	C89.729889,301.634491 87.432419,294.962891 87.653976,289.152710 
	C87.799782,285.329132 87.719467,281.494629 87.661247,277.666229 
	C87.592247,273.128723 88.856171,268.048859 82.475403,266.236115 
	C86.732605,262.325073 94.682030,262.922546 97.800407,267.130310 
z"/>
<path fill="#000000" opacity="1.000000" stroke="none" 
	d="
M242.782715,290.611633 
	C245.661362,298.063080 241.883575,305.393829 234.277283,306.006165 
	C225.511246,306.711945 216.644333,306.173676 207.821335,306.145294 
	C207.130264,306.143097 206.581497,305.731995 206.399017,304.985168 
	C206.361206,303.686920 207.319794,303.224945 208.295227,303.074219 
	C211.235107,302.619904 212.006973,300.719086 212.003479,298.082520 
	C211.992233,289.586731 211.875320,281.085968 212.132919,272.597260 
	C212.244095,268.933563 209.792419,267.523865 207.526703,266.133514 
	C207.493347,264.441559 208.358673,263.877106 209.408539,263.875793 
	C216.217102,263.867218 223.064667,262.994629 229.813171,264.559998 
	C239.684662,266.849640 242.307602,273.565765 236.628540,281.871033 
	C236.271362,282.393372 236.060028,283.015472 235.748352,283.658112 
	C237.798279,286.239685 241.056686,287.391602 242.782715,290.611633 
M225.414856,286.325348 
	C219.284485,286.833313 219.151154,287.032623 219.340439,295.404907 
	C219.479202,301.541992 221.840332,303.459839 228.320511,302.699097 
	C233.190079,302.127411 235.826172,298.424744 234.714935,293.411896 
	C233.725296,288.947571 230.659866,286.760895 225.414856,286.325348 
M227.610565,268.517395 
	C219.948654,267.504486 219.284103,268.084320 219.346390,275.730194 
	C219.351776,276.390930 219.416138,277.056152 219.360672,277.711487 
	C219.110336,280.669617 220.461716,281.843414 223.404846,281.900330 
	C226.814240,281.966217 229.891495,281.341827 231.153839,277.895782 
	C232.443146,274.376129 231.952896,271.023865 227.610565,268.517395 
z"/>
<path fill="#000000" opacity="1.000000" stroke="none" 
	d="
M193.340607,261.484375 
	C197.838318,259.791016 199.483582,261.163147 199.446945,265.609863 
	C199.362076,275.909576 199.903397,286.225464 199.484589,296.506042 
	C199.319962,300.547394 200.447037,303.069427 204.238937,305.063141 
	C201.384201,307.780365 198.123718,307.969452 195.586349,306.989166 
	C192.679276,305.866058 190.341782,306.307312 187.565735,306.894775 
	C182.138672,308.043243 177.109970,306.654144 173.761017,302.092682 
	C169.584854,296.404510 169.232330,289.973328 172.368835,283.704346 
	C175.029388,278.386627 179.865753,276.648376 185.665146,276.598907 
	C187.892212,276.579926 191.364578,279.639618 192.335190,275.280121 
	C193.213608,271.334686 193.071259,267.186584 188.190933,265.325317 
	C187.928986,265.225433 187.776825,264.837677 187.395920,264.362152 
	C188.199951,261.462189 190.915543,262.113495 193.340607,261.484375 
M179.019363,298.221588 
	C180.258499,302.342682 183.171768,303.616211 187.113586,302.729858 
	C190.965286,301.863739 192.369232,298.912964 192.527176,295.340881 
	C192.650864,292.543549 192.595642,289.707062 192.271072,286.928741 
	C191.826996,283.127594 189.223236,281.019135 185.669022,280.511566 
	C181.937210,279.978607 179.801895,282.306030 178.827576,285.665314 
	C177.698395,289.558563 177.889526,293.511108 179.019363,298.221588 
z"/>
<path fill="#000000" opacity="1.000000" stroke="none" 
	d="
M258.191956,280.476624 
	C256.936249,284.800873 258.004150,288.360107 262.726959,296.767242 
	C268.482208,291.741302 270.295471,283.033508 266.072784,277.854065 
	C270.526245,276.089630 274.596863,276.496979 279.483185,277.603271 
	C270.504944,288.830597 267.176788,302.003571 261.195984,313.880402 
	C259.309967,317.625763 257.010071,320.750244 252.312531,320.771423 
	C250.762833,320.778381 249.273560,320.431519 248.868942,318.577850 
	C248.461548,316.711548 249.066299,315.289246 250.902054,314.562500 
	C251.824905,314.197205 252.807693,313.986145 253.742859,313.648560 
	C258.621155,311.887604 260.417297,307.602142 258.266418,303.013092 
	C255.729416,297.600250 253.059677,292.239441 250.788834,286.715759 
	C249.374847,283.276337 246.993195,280.747223 242.960602,278.030426 
	C248.948929,276.085236 253.676025,276.480682 258.295898,277.165344 
	C259.932617,277.407867 259.742645,279.109680 258.191956,280.476624 
z"/>
<path fill="#000000" opacity="1.000000" stroke="none" 
	d="
M148.377136,277.863770 
	C153.900146,276.084686 158.941635,275.698608 163.351410,279.531616 
	C165.778137,281.640961 166.963745,284.536499 166.020798,287.638489 
	C165.041672,290.859589 161.937012,289.749054 159.594437,289.937531 
	C157.773422,290.084045 155.914719,289.829285 154.105301,290.036804 
	C151.419205,290.344818 147.601181,288.790375 147.353775,293.669617 
	C147.144470,297.797546 150.596069,302.262238 154.405289,302.739960 
	C156.802673,303.040680 159.034927,302.595917 160.981125,301.024811 
	C162.442032,299.845459 163.960327,298.666809 165.628510,300.756653 
	C163.400757,305.237122 157.882812,307.924347 152.374771,307.248718 
	C145.925491,306.457611 140.947464,302.038116 139.810928,296.094574 
	C138.256882,287.967560 140.885559,282.161072 148.377136,277.863770 
M151.388794,285.722137 
	C152.375427,285.726410 153.368484,285.803589 154.347183,285.717651 
	C155.774582,285.592346 157.554077,285.791656 157.592606,283.619720 
	C157.618958,282.134583 156.625381,281.183716 155.321579,280.690125 
	C153.141205,279.864716 151.472382,280.919189 150.079041,282.447540 
	C148.936890,283.700378 148.266678,285.017609 151.388794,285.722137 
z"/>
<path fill="#000000" opacity="1.000000" stroke="none" 
	d="
M103.321289,343.200134 
	C103.077400,344.778107 103.138794,346.201569 101.186470,346.751587 
	C99.005936,344.149353 99.189934,341.310333 100.743683,338.681488 
	C101.657410,337.135559 109.899437,337.294861 111.137360,338.821045 
	C113.122726,341.268707 113.918785,343.936401 111.320305,346.549622 
	C108.870605,345.896301 110.260963,343.481567 109.019577,342.370300 
	C107.425140,343.411804 108.911507,346.351471 106.256088,346.521790 
	C104.057869,345.926758 105.394958,343.510071 104.140877,342.440857 
	C104.060089,342.371979 103.804924,342.430206 103.682266,342.509216 
	C103.553322,342.592163 103.486198,342.771210 103.321289,343.200134 
z"/>
<path fill="#000000" opacity="1.000000" stroke="none" 
	d="
M129.036194,342.186401 
	C129.262955,343.837067 131.080460,344.751709 130.035416,346.877502 
	C127.887222,345.551727 124.299248,348.098450 123.366684,345.427979 
	C122.223282,342.153748 122.154625,338.206360 123.757088,334.830750 
	C126.881401,334.984558 125.752945,337.476807 126.636787,338.525330 
	C127.882629,339.030701 128.887756,337.463715 130.076431,338.448242 
	C131.077225,339.947754 129.383591,340.733154 129.036194,342.186401 
z"/>
<path fill="#000000" opacity="1.000000" stroke="none" 
	d="
M222.983444,341.632111 
	C221.420898,342.994965 222.942902,345.490845 220.082565,346.743103 
	C218.080261,342.681091 218.882095,338.808960 219.752121,334.460022 
	C228.452011,341.697662 228.730591,342.319550 225.344330,346.237244 
	C223.020660,345.419464 224.667435,342.803833 222.983444,341.632111 
z"/>
<path fill="#000000" opacity="1.000000" stroke="none" 
	d="
M262.463196,336.817108 
	C267.401245,339.616180 268.050232,341.844635 265.376099,346.368652 
	C264.070343,346.242554 263.933807,345.275055 263.746674,344.246063 
	C263.586517,343.365448 264.145325,342.226196 262.915344,341.619476 
	C261.343994,342.842804 262.808014,345.344635 260.900055,346.382111 
	C260.760315,346.458069 260.576904,346.453674 259.717682,346.627289 
	C257.903778,343.229309 258.387146,339.379242 259.199402,335.947510 
	C259.744751,333.643494 261.404755,335.123596 262.463196,336.817108 
z"/>
<path fill="#000000" opacity="1.000000" stroke="none" 
	d="
M66.770203,344.695618 
	C66.894157,343.881836 66.987320,343.061951 67.147476,342.255341 
	C67.792717,339.005859 69.590950,336.980957 73.025299,338.156860 
	C76.953415,339.501831 75.399963,343.173676 74.668900,345.342407 
	C73.626717,348.434113 70.833313,347.586395 68.534309,346.107574 
	C68.257423,345.929535 67.989586,345.737396 67.349304,345.258301 
	C66.981041,344.964844 66.770203,344.695618 66.770203,344.695618 
z"/>
<path fill="#000000" opacity="1.000000" stroke="none" 
	d="
M116.411087,347.118896 
	C113.666367,345.661469 112.789963,344.089386 115.317345,342.054901 
	C115.696579,341.749634 116.114670,341.492645 116.514771,341.213287 
	C113.867882,338.794250 115.143517,337.494232 117.917557,337.639984 
	C120.959778,337.799866 121.743004,340.373291 122.002808,343.040497 
	C122.270073,345.784302 120.987015,347.080048 118.307915,347.150085 
	C117.810097,347.163086 117.312675,347.190948 116.411087,347.118896 
z"/>
<path fill="#000000" opacity="1.000000" stroke="none" 
	d="
M172.399872,343.666992 
	C172.935410,344.528656 174.338242,344.100739 174.655930,345.733307 
	C172.887115,347.566010 170.847977,347.820129 168.727966,346.144562 
	C166.797150,344.618561 166.590942,342.527618 167.435959,340.317963 
	C168.201126,338.317139 169.810257,337.691101 171.803619,337.841400 
	C173.671539,337.982239 174.917191,339.001740 175.261795,340.823059 
	C175.664917,342.953613 173.964783,343.155304 172.399872,343.666992 
z"/>
<path fill="#000000" opacity="1.000000" stroke="none" 
	d="
M132.737762,338.936768 
	C135.323563,337.304565 137.521927,337.252045 139.018692,339.660645 
	C140.385544,341.860138 138.861771,344.063232 138.201996,346.089050 
	C137.818817,347.265594 136.054367,347.461731 134.700531,347.025696 
	C133.207443,346.544861 132.117920,345.534668 131.820984,343.963531 
	C131.515488,342.347137 131.468918,340.702332 132.737762,338.936768 
z"/>
<path fill="#000000" opacity="1.000000" stroke="none" 
	d="
M245.511993,340.962158 
	C246.150238,343.879700 246.691498,346.445068 242.978989,347.009033 
	C241.146042,347.287445 239.106354,347.659851 238.146912,345.601593 
	C237.090942,343.336182 238.883469,342.355438 240.757187,341.430420 
	C240.585327,340.303619 237.184616,339.567474 239.946548,338.060364 
	C242.664185,336.577423 244.280548,338.217377 245.511993,340.962158 
z"/>
<path fill="#000000" opacity="1.000000" stroke="none" 
	d="
M205.988922,342.167542 
	C205.095230,342.800995 204.363922,343.166321 203.586563,343.554626 
	C203.636566,344.810059 205.524338,344.023651 205.724808,345.596161 
	C204.299469,347.539062 202.361496,347.785248 200.311890,346.392181 
	C198.394653,345.089111 197.285187,343.196747 198.253647,340.811127 
	C198.978592,339.025391 200.317581,337.683990 202.416306,337.800049 
	C204.898224,337.937347 206.544052,339.042725 205.988922,342.167542 
z"/>
<path fill="#000000" opacity="1.000000" stroke="none" 
	d="
M159.404175,345.430603 
	C158.710922,343.994141 159.479919,342.453918 158.127701,341.521759 
	C156.126678,342.564209 157.946518,345.593506 155.240112,346.500671 
	C152.716278,344.098450 153.423660,341.150330 154.784424,338.697998 
	C155.695526,337.056091 158.183319,337.126923 159.755142,338.044098 
	C162.425247,339.602173 162.409027,342.435913 161.964676,345.095062 
	C161.733841,346.476410 160.779053,347.096832 159.404175,345.430603 
z"/>
<path fill="#000000" opacity="1.000000" stroke="none" 
	d="
M146.884506,341.828979 
	C147.223953,340.501068 144.398911,339.114990 147.227020,338.060913 
	C148.935303,337.424164 150.432571,337.759460 151.486725,339.488739 
	C153.383881,342.600983 152.284866,346.410950 149.259506,347.004974 
	C147.724014,347.306427 146.177734,347.353607 145.209564,345.937744 
	C143.924744,344.058777 145.138443,342.890198 146.884506,341.828979 
z"/>
<path fill="#000000" opacity="1.000000" stroke="none" 
	d="
M183.949127,340.439423 
	C184.332520,342.474396 184.538376,344.120514 183.844162,346.123291 
	C181.597260,346.533356 178.946365,348.675598 177.095612,345.370483 
	C175.879349,343.198486 177.932037,342.180695 179.681335,341.389832 
	C179.223969,340.419861 176.464584,340.351105 178.159698,338.749695 
	C180.295425,336.732056 182.407822,337.495483 183.949127,340.439423 
z"/>
<path fill="#000000" opacity="1.000000" stroke="none" 
	d="
M228.802948,341.188049 
	C229.271423,339.407013 230.123138,338.398590 231.511093,338.048767 
	C233.708572,337.494812 235.566681,338.110840 236.401352,340.319733 
	C237.451675,343.099396 234.643692,342.853088 233.192581,343.900299 
	C234.013748,344.465546 234.733398,344.960938 235.523270,345.504639 
	C231.163208,348.107971 229.514832,347.107483 228.802948,341.188049 
z"/>
<path fill="#000000" opacity="1.000000" stroke="none" 
	d="
M295.062592,338.859375 
	C297.762878,342.635864 294.652069,343.028870 292.380280,343.750763 
	C293.336365,345.010345 294.961456,344.066742 295.653198,345.620422 
	C294.033478,347.565094 292.075500,347.674500 290.160187,346.158264 
	C288.217560,344.620422 288.155487,342.280975 289.039948,340.272400 
	C290.151123,337.748901 292.272186,337.171417 295.062592,338.859375 
z"/>
<path fill="#000000" opacity="1.000000" stroke="none" 
	d="
M92.624016,337.967407 
	C94.294876,338.806427 93.864830,339.998688 93.923470,341.135529 
	C94.047058,343.531830 95.205795,346.337311 91.580673,347.110596 
	C90.144821,347.416809 88.043228,347.156250 88.370659,345.183685 
	C88.825768,342.441895 85.894310,337.538300 92.624016,337.967407 
z"/>
<path fill="#000000" opacity="1.000000" stroke="none" 
	d="
M187.156952,346.909607 
	C186.837158,344.654938 186.452606,342.693329 185.604019,340.653717 
	C184.986496,339.169525 186.665558,337.987823 188.312546,337.812988 
	C189.887314,337.645905 191.351822,337.823792 191.311203,340.055786 
	C191.255905,343.093994 193.896561,347.552155 187.156952,346.909607 
z"/>
<path fill="#000000" opacity="1.000000" stroke="none" 
	d="
M193.035553,342.063629 
	C193.322495,339.421753 193.012482,337.044678 194.414520,335.018768 
	C197.840714,336.932465 198.310547,342.411713 195.487350,346.666626 
	C192.966125,346.264557 193.245682,344.218933 193.035553,342.063629 
z"/>
<path fill="#000000" opacity="1.000000" stroke="none" 
	d="
M256.229553,339.668732 
	C254.399338,342.264038 255.806122,344.182648 257.365936,345.741913 
	C255.300766,347.673828 253.590942,347.297119 252.853241,345.623291 
	C251.462509,342.467651 250.952133,339.133850 253.462372,336.129822 
	C255.524857,336.567719 255.959686,337.945282 256.229553,339.668732 
z"/>
<path fill="#000000" opacity="1.000000" stroke="none" 
	d="
M287.011414,338.890991 
	C285.352173,341.306976 286.885986,344.545715 284.524200,346.465881 
	C280.697723,341.314484 281.610229,336.393158 286.564728,334.898010 
	C287.955750,335.950989 286.369629,337.397766 287.011414,338.890991 
z"/>
<path fill="#000000" opacity="1.000000" stroke="none" 
	d="
M77.310371,337.924866 
	C78.064331,336.389526 78.841850,335.447083 80.052536,336.767456 
	C80.860031,337.648071 82.670914,338.655182 81.461182,340.005829 
	C79.305069,342.413086 81.460426,344.194183 82.211021,346.154053 
	C77.561874,347.244873 76.760742,345.900269 77.310371,337.924866 
z"/>
<path fill="#000000" opacity="1.000000" stroke="none" 
	d="
M67.088577,345.097778 
	C65.603577,347.585266 63.230396,347.612091 60.992813,346.837708 
	C58.408207,345.943207 59.460049,343.602844 59.512863,341.698761 
	C59.574570,339.473999 59.527283,337.246246 59.527283,334.217163 
	C63.045200,336.117859 62.182137,338.494476 62.188297,340.365326 
	C62.197300,343.100037 62.792652,344.960388 66.397354,344.672424 
	C66.770203,344.695618 66.981041,344.964844 67.088577,345.097778 
z"/>
<path fill="#000000" opacity="1.000000" stroke="none" 
	d="
M249.830719,345.154144 
	C248.699738,346.905334 247.491867,346.719086 247.267487,345.221375 
	C246.765961,341.873779 246.397156,338.430908 248.236771,334.696777 
	C251.349213,338.027710 249.690781,341.560669 249.830719,345.154144 
z"/>
<path fill="#000000" opacity="1.000000" stroke="none" 
	d="
M275.943024,337.441406 
	C275.762421,340.688324 276.690918,343.723358 274.045227,347.356262 
	C272.146149,342.951141 272.128113,339.246613 273.415436,335.938293 
	C274.155487,334.036407 275.409973,335.704315 275.943024,337.441406 
z"/>
<path fill="#000000" opacity="1.000000" stroke="none" 
	d="
M298.808350,339.653381 
	C298.879242,337.855621 298.352386,336.263184 300.719879,334.889679 
	C303.023346,338.964600 300.964996,342.741760 301.231995,347.810242 
	C298.241791,344.715912 300.044128,342.027985 298.808350,339.653381 
z"/>
<path fill="#000000" opacity="1.000000" stroke="none" 
	d="
M207.646637,341.918243 
	C207.752136,337.041107 210.555237,337.832184 214.080078,338.174469 
	C212.077728,341.174652 209.884476,343.286804 209.679810,346.423340 
	C206.923660,345.715424 207.963593,343.740570 207.646637,341.918243 
z"/>
<path fill="#000000" opacity="1.000000" stroke="none" 
	d="
M280.342407,342.652222 
	C280.153992,344.132751 280.657257,345.439697 278.639740,346.364502 
	C277.034210,342.632935 277.475067,339.107880 278.778564,334.465576 
	C280.659576,337.490784 280.196198,339.928131 280.342407,342.652222 
z"/>
</svg>